<svg xmlns="http://www.w3.org/2000/svg" xmlns:xlink="http://www.w3.org/1999/xlink" width="500" zoomAndPan="magnify" viewBox="0 0 375 374.999991" height="500" preserveAspectRatio="xMidYMid meet" version="1.0"><defs><g/><clipPath id="3bea391d6d"><path d="M 177.203125 103.042969 L 197.796875 103.042969 L 197.796875 132.429688 L 177.203125 132.429688 Z M 177.203125 103.042969 " clip-rule="nonzero"/></clipPath></defs><rect x="-37.5" width="450" fill="#ffffff" y="-37.499999" height="449.999989" fill-opacity="1"/><rect x="-37.5" width="450" fill="#1c2120" y="-37.499999" height="449.999989" fill-opacity="1"/><g fill="#ffffff" fill-opacity="1"><g transform="translate(177.610408, 221.63849)"><g><path d="M 33.25 -77.015625 C 30.5625 -76.867188 28.597656 -76.570312 27.359375 -76.125 C 26.128906 -75.675781 25.289062 -74.816406 24.84375 -73.546875 C 24.394531 -72.273438 24.171875 -70.222656 24.171875 -67.390625 L 24.171875 -11.859375 C 24.171875 -9.023438 24.394531 -6.972656 24.84375 -5.703125 C 25.289062 -4.441406 26.128906 -3.601562 27.359375 -3.1875 C 28.597656 -2.78125 30.5625 -2.578125 33.25 -2.578125 L 41.421875 -2.578125 C 46.046875 -2.578125 49.570312 -3.226562 52 -4.53125 C 54.425781 -5.84375 56.195312 -7.953125 57.3125 -10.859375 C 58.425781 -13.765625 59.25 -17.976562 59.78125 -23.5 L 62.34375 -23.5 C 62.125 -21.1875 62.015625 -18.128906 62.015625 -14.328125 C 62.015625 -10.078125 62.273438 -5.300781 62.796875 0 C 57.722656 -0.21875 49.175781 -0.328125 37.15625 -0.328125 C 22.832031 -0.328125 12.015625 -0.21875 4.703125 0 L 4.703125 -2.234375 C 7.390625 -2.390625 9.347656 -2.691406 10.578125 -3.140625 C 11.804688 -3.585938 12.644531 -4.441406 13.09375 -5.703125 C 13.539062 -6.972656 13.765625 -9.023438 13.765625 -11.859375 L 13.765625 -67.390625 C 13.765625 -70.222656 13.539062 -72.273438 13.09375 -73.546875 C 12.644531 -74.816406 11.804688 -75.675781 10.578125 -76.125 C 9.347656 -76.570312 7.390625 -76.867188 4.703125 -77.015625 L 4.703125 -79.25 C 7.835938 -79.03125 12.613281 -78.921875 19.03125 -78.921875 C 25 -78.921875 29.738281 -79.03125 33.25 -79.25 Z M 33.25 -77.015625 "/></g></g></g><g clip-path="url(#3bea391d6d)"><path fill="#1c2120" d="M 177.203125 103.042969 L 197.796875 103.042969 L 197.796875 132.429688 L 177.203125 132.429688 Z M 177.203125 103.042969 " fill-opacity="1" fill-rule="nonzero"/></g><g fill="#ffffff" fill-opacity="1"><g transform="translate(137.919605, 214.404128)"><g><path d="M 47.90625 -107.671875 C 65.851562 -107.671875 79.285156 -103.179688 88.203125 -94.203125 C 97.128906 -85.234375 101.59375 -72.179688 101.59375 -55.046875 C 101.59375 -43.992188 99.410156 -34.3125 95.046875 -26 C 90.691406 -17.6875 84.378906 -11.273438 76.109375 -6.765625 C 67.847656 -2.253906 57.988281 0 46.53125 0 L 37.71875 -0.15625 C 32.039062 -0.351562 27.882812 -0.453125 25.25 -0.453125 C 16.9375 -0.453125 10.648438 -0.300781 6.390625 0 L 6.390625 -3.046875 C 10.035156 -3.242188 12.691406 -3.644531 14.359375 -4.25 C 16.035156 -4.863281 17.175781 -6.03125 17.78125 -7.75 C 18.394531 -9.476562 18.703125 -12.269531 18.703125 -16.125 L 18.703125 -91.546875 C 18.703125 -95.398438 18.394531 -98.1875 17.78125 -99.90625 C 17.175781 -101.632812 16.035156 -102.800781 14.359375 -103.40625 C 12.691406 -104.019531 10.035156 -104.425781 6.390625 -104.625 L 6.390625 -107.671875 C 9.929688 -107.367188 14.847656 -107.21875 21.140625 -107.21875 L 34.0625 -107.359375 C 40.957031 -107.566406 45.570312 -107.671875 47.90625 -107.671875 Z M 44.109375 -104.9375 C 40.960938 -104.9375 38.601562 -104.582031 37.03125 -103.875 C 35.457031 -103.164062 34.363281 -101.894531 33.75 -100.0625 C 33.144531 -98.238281 32.84375 -95.503906 32.84375 -91.859375 L 32.84375 -15.8125 C 32.84375 -12.164062 33.144531 -9.425781 33.75 -7.59375 C 34.363281 -5.769531 35.457031 -4.503906 37.03125 -3.796875 C 38.601562 -3.085938 41.007812 -2.734375 44.25 -2.734375 C 55 -2.734375 63.460938 -4.6875 69.640625 -8.59375 C 75.828125 -12.5 80.160156 -18.203125 82.640625 -25.703125 C 85.128906 -33.203125 86.375 -42.78125 86.375 -54.4375 C 86.375 -66.101562 85.003906 -75.609375 82.265625 -82.953125 C 79.535156 -90.304688 75.101562 -95.804688 68.96875 -99.453125 C 62.832031 -103.109375 54.546875 -104.9375 44.109375 -104.9375 Z M 44.109375 -104.9375 "/></g></g></g><g fill="#ffffff" fill-opacity="1"><g transform="translate(102.328642, 261.53928)"><g><path d="M 7.671875 -15.089844 L 2.070312 -15.089844 L 2.070312 0 L 7.671875 0 C 12.285156 0 15.734375 -3.253906 15.734375 -7.542969 C 15.734375 -11.832031 12.285156 -15.089844 7.671875 -15.089844 Z M 7.394531 -0.429688 L 3.988281 -0.429688 L 3.988281 -14.65625 L 7.394531 -14.65625 C 11.207031 -14.65625 13.730469 -11.832031 13.730469 -7.542969 C 13.730469 -3.253906 11.207031 -0.429688 7.394531 -0.429688 Z M 7.394531 -0.429688 "/></g></g></g><g fill="#ffffff" fill-opacity="1"><g transform="translate(119.138295, 261.53928)"><g><path d="M 12.695312 0 L 14.699219 0 L 8.105469 -15.089844 L 7.265625 -15.089844 L 0.648438 0 L 1.25 0 L 3.210938 -4.460938 L 10.757812 -4.460938 Z M 3.382812 -4.894531 L 6.984375 -13.105469 L 10.5625 -4.894531 Z M 3.382812 -4.894531 "/></g></g></g><g fill="#ffffff" fill-opacity="1"><g transform="translate(134.482486, 261.53928)"><g><path d="M 14.097656 -15.089844 L 8.386719 -1.960938 L 2.652344 -15.089844 L 0.648438 -15.089844 L 7.242188 0 L 8.082031 0 L 14.699219 -15.089844 Z M 14.097656 -15.089844 "/></g></g></g><g fill="#ffffff" fill-opacity="1"><g transform="translate(149.826677, 261.53928)"><g><path d="M 2.070312 0 L 3.988281 0 L 3.988281 -15.089844 L 2.070312 -15.089844 Z M 2.070312 0 "/></g></g></g><g fill="#ffffff" fill-opacity="1"><g transform="translate(155.860906, 261.53928)"><g><path d="M 7.671875 -15.089844 L 2.070312 -15.089844 L 2.070312 0 L 7.671875 0 C 12.285156 0 15.734375 -3.253906 15.734375 -7.542969 C 15.734375 -11.832031 12.285156 -15.089844 7.671875 -15.089844 Z M 7.394531 -0.429688 L 3.988281 -0.429688 L 3.988281 -14.65625 L 7.394531 -14.65625 C 11.207031 -14.65625 13.730469 -11.832031 13.730469 -7.542969 C 13.730469 -3.253906 11.207031 -0.429688 7.394531 -0.429688 Z M 7.394531 -0.429688 "/></g></g></g><g fill="#ffffff" fill-opacity="1"><g transform="translate(172.670559, 261.53928)"><g/></g></g><g fill="#ffffff" fill-opacity="1"><g transform="translate(178.467735, 261.53928)"><g><path d="M 3.988281 -0.429688 L 3.988281 -15.089844 L 2.070312 -15.089844 L 2.070312 0 L 12.15625 0 L 12.15625 -0.429688 Z M 3.988281 -0.429688 "/></g></g></g><g fill="#ffffff" fill-opacity="1"><g transform="translate(191.376681, 261.53928)"><g><path d="M 8.921875 0.214844 C 13.429688 0.214844 16.792969 -3.125 16.792969 -7.542969 C 16.792969 -11.964844 13.429688 -15.304688 8.921875 -15.304688 C 4.441406 -15.304688 1.078125 -11.964844 1.078125 -7.542969 C 1.078125 -3.125 4.441406 0.214844 8.921875 0.214844 Z M 8.921875 -0.214844 C 5.410156 -0.214844 3.082031 -3.125 3.082031 -7.542969 C 3.082031 -11.964844 5.410156 -14.871094 8.921875 -14.871094 C 12.457031 -14.871094 14.785156 -11.964844 14.785156 -7.542969 C 14.785156 -3.125 12.457031 -0.214844 8.921875 -0.214844 Z M 8.921875 -0.214844 "/></g></g></g><g fill="#ffffff" fill-opacity="1"><g transform="translate(209.242326, 261.53928)"><g><path d="M 12.652344 -15.089844 L 1.335938 -15.089844 L 1.335938 -14.65625 L 10.496094 -14.65625 L 1.035156 -0.34375 L 1.035156 0 L 12.632812 0 L 12.632812 -0.429688 L 3.191406 -0.429688 L 12.652344 -14.742188 Z M 12.652344 -15.089844 "/></g></g></g><g fill="#ffffff" fill-opacity="1"><g transform="translate(222.927101, 261.53928)"><g><path d="M 12.695312 0 L 14.699219 0 L 8.105469 -15.089844 L 7.265625 -15.089844 L 0.648438 0 L 1.25 0 L 3.210938 -4.460938 L 10.757812 -4.460938 Z M 3.382812 -4.894531 L 6.984375 -13.105469 L 10.5625 -4.894531 Z M 3.382812 -4.894531 "/></g></g></g><g fill="#ffffff" fill-opacity="1"><g transform="translate(238.271292, 261.53928)"><g><path d="M 13.96875 -15.089844 L 13.96875 -2.585938 L 3.6875 -15.089844 L 2.070312 -15.089844 L 2.070312 0 L 2.585938 0 L 2.585938 -13.535156 L 13.753906 0 L 14.484375 0 L 14.484375 -15.089844 Z M 13.96875 -15.089844 "/></g></g></g><g fill="#ffffff" fill-opacity="1"><g transform="translate(254.800783, 261.53928)"><g><path d="M 8.921875 0.214844 C 13.429688 0.214844 16.792969 -3.125 16.792969 -7.542969 C 16.792969 -11.964844 13.429688 -15.304688 8.921875 -15.304688 C 4.441406 -15.304688 1.078125 -11.964844 1.078125 -7.542969 C 1.078125 -3.125 4.441406 0.214844 8.921875 0.214844 Z M 8.921875 -0.214844 C 5.410156 -0.214844 3.082031 -3.125 3.082031 -7.542969 C 3.082031 -11.964844 5.410156 -14.871094 8.921875 -14.871094 C 12.457031 -14.871094 14.785156 -11.964844 14.785156 -7.542969 C 14.785156 -3.125 12.457031 -0.214844 8.921875 -0.214844 Z M 8.921875 -0.214844 "/></g></g></g><g fill="#ffffff" fill-opacity="1"><g transform="translate(129.733759, 279.164631)"><g><path d="M 4.054688 0.121094 C 6.078125 0.121094 7.269531 -0.925781 7.210938 -3.019531 L 6.359375 -2.777344 C 6.480469 -1.15625 5.503906 -0.328125 4.054688 -0.328125 C 2.289062 -0.328125 1.339844 -1.707031 1.339844 -4.019531 C 1.339844 -6.332031 2.410156 -7.710938 4.179688 -7.710938 C 5.503906 -7.710938 6.480469 -6.882812 6.359375 -5.382812 L 7.210938 -5.140625 C 7.269531 -7.113281 6.078125 -8.160156 4.179688 -8.160156 C 1.863281 -8.160156 0.488281 -6.636719 0.488281 -4.019531 C 0.488281 -1.402344 1.742188 0.121094 4.054688 0.121094 Z M 4.054688 0.121094 "/></g></g></g><g fill="#ffffff" fill-opacity="1"><g transform="translate(137.428869, 279.164631)"><g><path d="M 4.25 0.121094 C 6.636719 0.121094 8.015625 -1.644531 8.015625 -4.019531 C 8.015625 -6.394531 6.636719 -8.160156 4.25 -8.160156 C 1.851562 -8.160156 0.488281 -6.394531 0.488281 -4.019531 C 0.488281 -1.644531 1.851562 0.121094 4.25 0.121094 Z M 4.578125 -0.339844 C 2.691406 -0.195312 1.523438 -1.644531 1.351562 -3.789062 C 1.179688 -5.945312 2.09375 -7.539062 3.921875 -7.699219 C 5.808594 -7.84375 6.96875 -6.394531 7.148438 -4.25 C 7.332031 -2.09375 6.394531 -0.5 4.578125 -0.339844 Z M 4.578125 -0.339844 "/></g></g></g><g fill="#ffffff" fill-opacity="1"><g transform="translate(145.927572, 279.164631)"><g><path d="M 0.242188 0 L 2.644531 0 L 2.644531 -0.207031 C 1.644531 -0.207031 1.59375 -0.414062 1.886719 -1.085938 L 3.03125 -3.8125 L 6.113281 -3.8125 L 7.257812 -1.085938 C 7.539062 -0.414062 7.492188 -0.207031 6.492188 -0.207031 L 6.492188 0 L 9.34375 0 L 9.34375 -0.207031 C 8.757812 -0.207031 8.464844 -0.414062 8.183594 -1.085938 L 5.25 -8.039062 L 3.324219 -8.039062 L 3.324219 -7.832031 C 4.082031 -7.832031 4.164062 -7.660156 3.945312 -7.101562 L 1.402344 -1.085938 C 1.121094 -0.414062 0.828125 -0.207031 0.242188 -0.207031 Z M 3.226562 -4.25 L 4.578125 -7.464844 L 5.917969 -4.25 Z M 3.226562 -4.25 "/></g></g></g><g fill="#ffffff" fill-opacity="1"><g transform="translate(155.509927, 279.164631)"><g><path d="M 4.054688 0.121094 C 6.078125 0.121094 7.269531 -0.925781 7.210938 -3.019531 L 6.359375 -2.777344 C 6.480469 -1.15625 5.503906 -0.328125 4.054688 -0.328125 C 2.289062 -0.328125 1.339844 -1.707031 1.339844 -4.019531 C 1.339844 -6.332031 2.410156 -7.710938 4.179688 -7.710938 C 5.503906 -7.710938 6.480469 -6.882812 6.359375 -5.382812 L 7.210938 -5.140625 C 7.269531 -7.113281 6.078125 -8.160156 4.179688 -8.160156 C 1.863281 -8.160156 0.488281 -6.636719 0.488281 -4.019531 C 0.488281 -1.402344 1.742188 0.121094 4.054688 0.121094 Z M 4.054688 0.121094 "/></g></g></g><g fill="#ffffff" fill-opacity="1"><g transform="translate(163.205036, 279.164631)"><g><path d="M 0.488281 0 L 2.558594 0 L 2.558594 -0.207031 C 2.058594 -0.207031 1.949219 -0.449219 1.949219 -1.179688 L 1.949219 -4.117188 L 6.722656 -4.117188 L 6.722656 -1.179688 C 6.722656 -0.449219 6.625 -0.207031 6.113281 -0.207031 L 6.113281 0 L 8.183594 0 L 8.183594 -0.207031 C 7.6875 -0.207031 7.574219 -0.449219 7.574219 -1.179688 L 7.574219 -6.855469 C 7.574219 -7.589844 7.6875 -7.832031 8.183594 -7.832031 L 8.183594 -8.039062 L 6.113281 -8.039062 L 6.113281 -7.832031 C 6.625 -7.832031 6.722656 -7.589844 6.722656 -6.855469 L 6.722656 -4.566406 L 1.949219 -4.566406 L 1.949219 -6.855469 C 1.949219 -7.589844 2.058594 -7.832031 2.558594 -7.832031 L 2.558594 -8.039062 L 0.488281 -8.039062 L 0.488281 -7.832031 C 0.988281 -7.832031 1.097656 -7.589844 1.097656 -6.855469 L 1.097656 -1.179688 C 1.097656 -0.449219 0.988281 -0.207031 0.488281 -0.207031 Z M 0.488281 0 "/></g></g></g><g fill="#ffffff" fill-opacity="1"><g transform="translate(171.87421, 279.164631)"><g/></g></g><g fill="#ffffff" fill-opacity="1"><g transform="translate(174.686824, 279.164631)"><g><path d="M 0.488281 0 L 2.558594 0 L 2.558594 -0.207031 C 2.058594 -0.207031 1.949219 -0.449219 1.949219 -1.179688 L 1.949219 -3.460938 L 4.203125 -3.460938 C 4.933594 -3.460938 5.175781 -3.347656 5.175781 -2.851562 L 5.382812 -2.851562 L 5.382812 -4.519531 L 5.175781 -4.519531 C 5.175781 -4.019531 4.933594 -3.910156 4.203125 -3.910156 L 1.949219 -3.910156 L 1.949219 -7.589844 L 4.847656 -7.589844 C 5.578125 -7.589844 5.859375 -7.308594 6.042969 -6.054688 L 6.25 -6.089844 L 5.96875 -7.964844 L 5.957031 -8.039062 L 0.488281 -8.039062 L 0.488281 -7.832031 C 0.988281 -7.832031 1.097656 -7.589844 1.097656 -6.855469 L 1.097656 -1.179688 C 1.097656 -0.449219 0.988281 -0.207031 0.488281 -0.207031 Z M 0.488281 0 "/></g></g></g><g fill="#ffffff" fill-opacity="1"><g transform="translate(181.420035, 279.164631)"><g><path d="M 0.488281 0 L 2.558594 0 L 2.558594 -0.207031 C 2.058594 -0.207031 1.949219 -0.449219 1.949219 -1.179688 L 1.949219 -6.855469 C 1.949219 -7.589844 2.058594 -7.832031 2.558594 -7.832031 L 2.558594 -8.039062 L 0.488281 -8.039062 L 0.488281 -7.832031 C 0.988281 -7.832031 1.097656 -7.589844 1.097656 -6.855469 L 1.097656 -1.179688 C 1.097656 -0.449219 0.988281 -0.207031 0.488281 -0.207031 Z M 0.488281 0 "/></g></g></g><g fill="#ffffff" fill-opacity="1"><g transform="translate(184.46398, 279.164631)"><g><path d="M 0.488281 0 L 2.15625 0 L 2.15625 -0.207031 C 1.65625 -0.207031 1.546875 -0.449219 1.546875 -1.179688 L 1.546875 -7.148438 L 6.347656 -0.574219 C 6.734375 -0.0351562 6.90625 0 7.636719 0 L 7.636719 -6.855469 C 7.636719 -7.589844 7.734375 -7.832031 8.246094 -7.832031 L 8.246094 -8.039062 L 6.578125 -8.039062 L 6.578125 -7.832031 C 7.078125 -7.832031 7.1875 -7.589844 7.1875 -6.855469 L 7.1875 -0.890625 L 2.375 -7.464844 C 2.035156 -7.941406 1.875 -8.027344 1.242188 -8.039062 L 0.488281 -8.039062 L 0.488281 -7.832031 C 0.988281 -7.832031 1.097656 -7.589844 1.097656 -6.855469 L 1.097656 -1.179688 C 1.097656 -0.449219 0.988281 -0.207031 0.488281 -0.207031 Z M 0.488281 0 "/></g></g></g><g fill="#ffffff" fill-opacity="1"><g transform="translate(193.194025, 279.164631)"><g><path d="M 0.242188 0 L 2.644531 0 L 2.644531 -0.207031 C 1.644531 -0.207031 1.59375 -0.414062 1.886719 -1.085938 L 3.03125 -3.8125 L 6.113281 -3.8125 L 7.257812 -1.085938 C 7.539062 -0.414062 7.492188 -0.207031 6.492188 -0.207031 L 6.492188 0 L 9.34375 0 L 9.34375 -0.207031 C 8.757812 -0.207031 8.464844 -0.414062 8.183594 -1.085938 L 5.25 -8.039062 L 3.324219 -8.039062 L 3.324219 -7.832031 C 4.082031 -7.832031 4.164062 -7.660156 3.945312 -7.101562 L 1.402344 -1.085938 C 1.121094 -0.414062 0.828125 -0.207031 0.242188 -0.207031 Z M 3.226562 -4.25 L 4.578125 -7.464844 L 5.917969 -4.25 Z M 3.226562 -4.25 "/></g></g></g><g fill="#ffffff" fill-opacity="1"><g transform="translate(202.77638, 279.164631)"><g><path d="M 0.488281 0 L 2.15625 0 L 2.15625 -0.207031 C 1.65625 -0.207031 1.546875 -0.449219 1.546875 -1.179688 L 1.546875 -7.148438 L 6.347656 -0.574219 C 6.734375 -0.0351562 6.90625 0 7.636719 0 L 7.636719 -6.855469 C 7.636719 -7.589844 7.734375 -7.832031 8.246094 -7.832031 L 8.246094 -8.039062 L 6.578125 -8.039062 L 6.578125 -7.832031 C 7.078125 -7.832031 7.1875 -7.589844 7.1875 -6.855469 L 7.1875 -0.890625 L 2.375 -7.464844 C 2.035156 -7.941406 1.875 -8.027344 1.242188 -8.039062 L 0.488281 -8.039062 L 0.488281 -7.832031 C 0.988281 -7.832031 1.097656 -7.589844 1.097656 -6.855469 L 1.097656 -1.179688 C 1.097656 -0.449219 0.988281 -0.207031 0.488281 -0.207031 Z M 0.488281 0 "/></g></g></g><g fill="#ffffff" fill-opacity="1"><g transform="translate(211.506425, 279.164631)"><g><path d="M 4.054688 0.121094 C 6.078125 0.121094 7.269531 -0.925781 7.210938 -3.019531 L 6.359375 -2.777344 C 6.480469 -1.15625 5.503906 -0.328125 4.054688 -0.328125 C 2.289062 -0.328125 1.339844 -1.707031 1.339844 -4.019531 C 1.339844 -6.332031 2.410156 -7.710938 4.179688 -7.710938 C 5.503906 -7.710938 6.480469 -6.882812 6.359375 -5.382812 L 7.210938 -5.140625 C 7.269531 -7.113281 6.078125 -8.160156 4.179688 -8.160156 C 1.863281 -8.160156 0.488281 -6.636719 0.488281 -4.019531 C 0.488281 -1.402344 1.742188 0.121094 4.054688 0.121094 Z M 4.054688 0.121094 "/></g></g></g><g fill="#ffffff" fill-opacity="1"><g transform="translate(219.201535, 279.164631)"><g><path d="M 0.488281 0 L 2.558594 0 L 2.558594 -0.207031 C 2.058594 -0.207031 1.949219 -0.449219 1.949219 -1.179688 L 1.949219 -6.855469 C 1.949219 -7.589844 2.058594 -7.832031 2.558594 -7.832031 L 2.558594 -8.039062 L 0.488281 -8.039062 L 0.488281 -7.832031 C 0.988281 -7.832031 1.097656 -7.589844 1.097656 -6.855469 L 1.097656 -1.179688 C 1.097656 -0.449219 0.988281 -0.207031 0.488281 -0.207031 Z M 0.488281 0 "/></g></g></g><g fill="#ffffff" fill-opacity="1"><g transform="translate(222.24548, 279.164631)"><g><path d="M 0.488281 0 L 6.042969 0 L 6.066406 -0.144531 L 6.273438 -1.65625 L 6.078125 -1.679688 C 5.917969 -0.683594 5.652344 -0.449219 4.921875 -0.449219 L 1.949219 -0.449219 L 1.949219 -3.859375 L 3.933594 -3.859375 C 4.664062 -3.859375 4.894531 -3.75 4.894531 -3.253906 L 5.101562 -3.253906 L 5.101562 -4.910156 L 4.894531 -4.910156 C 4.894531 -4.410156 4.664062 -4.300781 3.933594 -4.300781 L 1.949219 -4.300781 L 1.949219 -7.589844 L 4.800781 -7.589844 C 5.53125 -7.589844 5.796875 -7.355469 5.957031 -6.359375 L 6.152344 -6.382812 L 5.945312 -7.894531 L 5.917969 -8.039062 L 0.488281 -8.039062 L 0.488281 -7.832031 C 0.988281 -7.832031 1.097656 -7.589844 1.097656 -6.855469 L 1.097656 -1.179688 C 1.097656 -0.449219 0.988281 -0.207031 0.488281 -0.207031 Z M 0.488281 0 "/></g></g></g><g fill="#ffffff" fill-opacity="1"><g transform="translate(229.003044, 279.164631)"><g><path d="M 0.488281 0 L 2.558594 0 L 2.558594 -0.207031 C 2.058594 -0.207031 1.949219 -0.449219 1.949219 -1.179688 L 1.949219 -4.261719 L 2.105469 -4.261719 C 3.777344 -4.261719 4.410156 -3.921875 4.835938 -2.09375 C 5.273438 -0.21875 6.320312 0 7.636719 0 L 7.636719 -0.207031 C 6.746094 -0.207031 6.125 -0.683594 5.6875 -2.4375 C 5.445312 -3.445312 4.933594 -4.007812 4.289062 -4.324219 C 5.164062 -4.457031 5.980469 -4.847656 5.980469 -6.140625 C 5.980469 -7.917969 4.347656 -8.039062 3.300781 -8.039062 L 0.488281 -8.039062 L 0.488281 -7.832031 C 0.988281 -7.832031 1.097656 -7.589844 1.097656 -6.855469 L 1.097656 -1.179688 C 1.097656 -0.449219 0.988281 -0.207031 0.488281 -0.207031 Z M 1.949219 -4.703125 L 1.949219 -7.589844 L 3.460938 -7.589844 C 4.617188 -7.589844 5.128906 -7.0625 5.128906 -6.125 C 5.128906 -5.175781 4.617188 -4.703125 3.460938 -4.703125 Z M 1.949219 -4.703125 "/></g></g></g><g fill="#ffffff" fill-opacity="1"><g transform="translate(236.759025, 279.164631)"><g><path d="M 4.25 0.121094 C 6.636719 0.121094 8.015625 -1.644531 8.015625 -4.019531 C 8.015625 -6.394531 6.636719 -8.160156 4.25 -8.160156 C 1.851562 -8.160156 0.488281 -6.394531 0.488281 -4.019531 C 0.488281 -1.644531 1.851562 0.121094 4.25 0.121094 Z M 4.578125 -0.339844 C 2.691406 -0.195312 1.523438 -1.644531 1.351562 -3.789062 C 1.179688 -5.945312 2.09375 -7.539062 3.921875 -7.699219 C 5.808594 -7.84375 6.96875 -6.394531 7.148438 -4.25 C 7.332031 -2.09375 6.394531 -0.5 4.578125 -0.339844 Z M 4.578125 -0.339844 "/></g></g></g></svg>